<?xml version="1.0" encoding="UTF-8" standalone="no"?>
<!-- Created with Inkscape (http://www.inkscape.org/) -->

<svg
   xmlns:dc="http://purl.org/dc/elements/1.1/"
   xmlns:cc="http://creativecommons.org/ns#"
   xmlns:rdf="http://www.w3.org/1999/02/22-rdf-syntax-ns#"
   xmlns:svg="http://www.w3.org/2000/svg"
   xmlns="http://www.w3.org/2000/svg"
   xmlns:sodipodi="http://sodipodi.sourceforge.net/DTD/sodipodi-0.dtd"
   xmlns:inkscape="http://www.inkscape.org/namespaces/inkscape"
   width="105.33111mm"
   height="63.185379mm"
   viewBox="0 0 105.33111 63.185379"
   version="1.1"
   id="svg8"
   inkscape:version="0.92.2 (5c3e80d, 2017-08-06)"
   sodipodi:docname="chipsort_logo2.svg"
   inkscape:export-filename="/home/user/src/ChipSort.jl/doc/logo/chipsort_logo2.svg.png"
   inkscape:export-xdpi="192.92"
   inkscape:export-ydpi="192.92">
  <defs
     id="defs2">
    <clipPath
       clipPathUnits="userSpaceOnUse"
       id="clipPath44">
      <path
         d="m 39.992,40.364 h 252.88 V 99.2 H 39.992 Z"
         id="path42"
         inkscape:connector-curvature="0" />
    </clipPath>
    <clipPath
       clipPathUnits="userSpaceOnUse"
       id="clipPath44-7">
      <path
         d="m 39.992,40.364 h 252.88 V 99.2 H 39.992 Z"
         id="path42-5"
         inkscape:connector-curvature="0" />
    </clipPath>
    <filter
       style="color-interpolation-filters:sRGB;"
       inkscape:label="Blur"
       id="filter4568">
      <feGaussianBlur
         stdDeviation="0.05 0.05"
         result="blur"
         id="feGaussianBlur4566" />
    </filter>
  </defs>
  <sodipodi:namedview
     id="base"
     pagecolor="#ffffff"
     bordercolor="#666666"
     borderopacity="1.0"
     inkscape:pageopacity="0.0"
     inkscape:pageshadow="2"
     inkscape:zoom="1.979899"
     inkscape:cx="8.3580459"
     inkscape:cy="129.07459"
     inkscape:document-units="mm"
     inkscape:current-layer="layer1"
     showgrid="false"
     inkscape:window-width="1920"
     inkscape:window-height="1063"
     inkscape:window-x="0"
     inkscape:window-y="17"
     inkscape:window-maximized="0"
     inkscape:snap-grids="false"
     inkscape:snap-to-guides="false"
     inkscape:snap-global="false"
     fit-margin-top="1"
     fit-margin-left="1"
     fit-margin-right="1"
     fit-margin-bottom="1"
     units="mm" />
  <metadata
     id="metadata5">
    <rdf:RDF>
      <cc:Work
         rdf:about="">
        <dc:format>image/svg+xml</dc:format>
        <dc:type
           rdf:resource="http://purl.org/dc/dcmitype/StillImage" />
        <dc:title />
      </cc:Work>
    </rdf:RDF>
  </metadata>
  <g
     inkscape:label="Layer 1"
     inkscape:groupmode="layer"
     id="layer1"
     transform="translate(-8.432232,-10.139794)">
    <path
       sodipodi:nodetypes="ccccscccsccscscsccsccsccsccccccccccccccccccccccccsccccccsccccscsccccscccsccccsccscccccccccccccccccccscccccccsccccccccccscsccsccsscc"
       inkscape:connector-curvature="0"
       id="path1491-6-5"
       d="m 24.018676,71.750066 c -0.21857,-0.33359 -0.57611,-2.12116 -0.807021,-4.0349 -0.514209,-4.26161 -0.491939,-4.19814 -1.40896,-4.01474 -1.11851,0.2237 -1.432189,-0.14308 -1.68151,-1.96616 -0.12563,-0.91858 -0.31586,-1.75759 -0.42274,-1.86446 -0.106879,-0.10687 -0.70506,-0.0795 -1.329299,0.0607 -1.57146,0.3531 -2.04659,0.0294 -2.44383,-1.66506 -0.17982,-0.76702 -0.43494,-1.53129 -0.566921,-1.69837 -0.26749,-0.33862 -1.28315,-3.98555 -3.52601,-12.6608 -0.82769,-3.20146 -1.74019,-6.63472 -2.0277701,-7.629478 -0.41506,-1.43569 -0.46462,-1.97578 -0.24034,-2.61917 0.15541,-0.44578 0.28255,-1.50968 0.28255,-2.36421 0,-1.36014 0.0742,-1.5851 0.5953201,-1.80583 0.32742,-0.13868 21.358471,-4.38158 46.73566,-9.42868 33.833737,-6.72896 46.254045,-9.10489 46.566665,-8.9079 0.47328,0.29823 1.41714,2.37185 5.93716,13.04381 l 3.08171,7.27605 -0.0955,2.31365 c -0.0525,1.2725 -0.21391,2.46313 -0.35866,2.64583 -0.14475,0.1827 -0.46913,0.987028 -0.72085,1.787388 -0.25172,0.80037 -0.7487,1.70177 -1.1044,2.00313 -0.52696,0.44646 -0.68472,0.90349 -0.85189,2.46803 -0.20472,1.91595 -0.48272,2.39538 -1.39399,2.40395 -0.78468,0.007 -0.96352,0.63144 -1.29023,4.50197 -0.36268,4.29689 -0.63339,5.02709 -1.86366,5.02709 -1.09882,0 -1.27681,-0.66199 -0.99596,-3.70417 0.12763,-1.38245 0.19842,-3.04556 0.1573,-3.69581 -0.0707,-1.11847 -0.11757,-1.18272 -0.86849,-1.19062 l -0.79375,-0.008 0.053,-1.91822 c 0.0586,-2.11955 0.0713,-2.10831 -1.90513,-1.68604 -0.771838,0.1649 -0.801048,0.22794 -1.058328,2.2838 -0.25773,2.05948 -0.28651,2.1213 -1.11165,2.38802 -0.46588,0.15059 -0.91018,0.33692 -0.98733,0.41406 -0.0771,0.0771 -0.2721,1.91632 -0.43325,4.08708 -0.16114,2.17075 -0.40924,4.16403 -0.55132,4.42951 -0.35143,0.65662 -1.29849,0.9803 -1.91754,0.65536 -0.4727,-0.24812 -0.49304,-0.50967 -0.33586,-4.3187 l 0.16729,-4.05458 -0.98704,-0.0818 -0.98705,-0.0818 0.0673,-1.91823 c 0.0752,-2.14299 0.0474,-2.16758 -1.85326,-1.63973 -0.94471,0.26236 -0.99233,0.32876 -0.9951,1.38759 -0.006,2.23458 -0.274,3.09017 -1.02451,3.26899 -0.3808,0.0907 -0.8269,0.27033 -0.99133,0.39911 -0.18298,0.1433 -0.3731,1.81627 -0.4901,4.31264 -0.15435,3.2934 -0.27506,4.15144 -0.62708,4.45736 -0.62961,0.54716 -1.16458,0.67447 -1.69271,0.40284 -0.41063,-0.21119 -0.46302,-0.69933 -0.46302,-4.3139 v -4.07576 l -0.99219,-0.0821 -0.99219,-0.0821 -0.002,-1.76634 c -0.001,-0.97149 -0.0785,-1.84236 -0.1714,-1.93529 -0.20195,-0.20194 -1.822486,0.0747 -2.351036,0.40136 -0.25132,0.15531 -0.40649,0.87642 -0.4733,2.19934 l -0.0994,1.96826 -1.01185,0.39747 -1.01185,0.39746 -0.0852,4.15378 c -0.082,3.99671 -0.10882,4.17288 -0.70982,4.65897 -0.75916,0.61401 -1.19093,0.63623 -1.73774,0.0894 -0.34075,-0.3407 -0.41583,-1.12617 -0.41583,-4.34966 v -3.93387 l -0.99219,-0.0821 -0.99219,-0.0821 -0.0777,-1.91824 c -0.0433,-1.06816 -0.19655,-1.91823 -0.34586,-1.91823 -0.14746,0 -0.79709,0.1332 -1.44361,0.29599 l -1.1755,0.296 -0.004,1.88681 c -0.005,2.13768 -0.0847,2.31925 -1.18657,2.68977 l -0.79375,0.26691 -0.13229,4.31574 c -0.11893,3.8796 -0.1842,4.35362 -0.64589,4.6906 -0.63505,0.46351 -1.63192,0.48643 -1.9182,0.0441 -0.11772,-0.18191 -0.27357,-2.11668 -0.34633,-4.29949 l -0.13229,-3.96875 -0.77801,0.0567 c -1.19862,0.0874 -1.47095,-0.31811 -1.47095,-2.19016 0,-0.91948 -0.0893,-1.72225 -0.19844,-1.78392 -0.10914,-0.0617 -0.73422,0.0206 -1.38906,0.18282 l -1.19063,0.29496 -0.13229,2.11667 -0.13229,2.11668 -0.92604,0.30259 -0.92605,0.30261 0.0942,4.14347 c 0.0834,3.66712 0.0406,4.20265 -0.37174,4.65832 -0.60926,0.67323 -1.86713,0.67499 -2.22671,0.003 -0.15064,-0.28148 -0.28868,-1.3828 -0.30676,-2.44739 -0.0181,-1.06459 -0.10737,-2.76906 -0.19844,-3.7877 l -0.16557,-1.8521 -0.89577,0.0898 c -1.15157,0.11552 -1.34411,-0.21311 -1.34913,-2.30269 l -0.004,-1.6837 -1.25678,0.1841 c -0.69122,0.10126 -1.36605,0.28956 -1.49962,0.41842 -0.13358,0.12888 -0.2144,1.01941 -0.17961,1.97896 0.0663,1.82938 -0.21243,2.50569 -1.03274,2.50569 -0.9713,0 -1.07182,0.54984 -0.82764,4.52688 0.12857,2.09413 0.13795,4.06031 0.0208,4.36929 -0.37691,0.99436 -2.12545,1.09591 -2.50313,0.14536 -0.1431,-0.36017 -0.6109,-5.76979 -0.64899,-7.50496 -0.007,-0.33573 -0.29128,-0.46817 -1.13431,-0.52917 l -1.12448,-0.0814 -0.20253,-1.83413 c -0.11139,-1.00877 -0.24285,-1.87444 -0.29212,-1.92371 -0.0493,-0.0493 -0.71399,0.0443 -1.47715,0.20799 l -1.38756,0.29758 0.0922,2.02301 0.0922,2.02301 -0.99219,0.48481 c -1.14569,0.55982 -1.1092,0.28861 -0.69194,5.14264 0.27955,3.25211 0.26684,3.54941 -0.17253,4.0349 -0.60458,0.66806 -1.87314,0.68862 -2.2224,0.036 -0.14367,-0.26845 -0.40524,-2.08415 -0.58128,-4.0349 -0.17603,-1.95074 -0.43025,-3.69058 -0.56492,-3.8663 -0.14074,-0.18365 -0.55071,-0.25833 -0.9642,-0.17563 -0.96533,0.19307 -1.26131,-0.24548 -1.40669,-2.08425 -0.0661,-0.83658 -0.19388,-1.59468 -0.28386,-1.68466 -0.09,-0.09 -0.73505,-0.0576 -1.43347,0.0719 l -1.26984,0.23549 v 1.97833 c 0,1.08809 -0.0868,2.11179 -0.19293,2.27489 -0.10612,0.16311 -0.5526,0.36849 -0.99219,0.45641 -0.94219,0.18844 -0.93063,0.066 -0.4045,4.28418 0.50653,4.06104 0.50141,4.25314 -0.13017,4.88473 -0.69825,0.69826 -1.48274,0.67044 -1.96774,-0.0698 z"
       style="fill:#cccccc;stroke-width:0.26458338" />
    <path
       sodipodi:nodetypes="cscccccccscccccscccccsscccccccccccccccssccccccccccccccccccccsccccccscccccsccccccccccccccccccccscsssssccccccccsccsccccccccsccccccccscccsscscccsccsccccccsccsccccscsccccscccscsscccccsc"
       inkscape:connector-curvature="0"
       id="path1489-1-6"
       d="m 24.172565,71.224516 c -0.11728,-0.32742 -0.36636,-2.08359 -0.5535,-3.9026 -0.415399,-4.03772 -0.5285,-4.29796 -1.819049,-4.18569 l -0.97298,0.0846 -0.264581,-1.76646 c -0.145519,-0.97155 -0.338079,-1.8388 -0.427909,-1.92721 -0.0898,-0.0884 -0.7288,-0.034 -1.41992,0.12084 -1.73073,0.38786 -2.18844,0.18079 -2.5187,-1.13949 -0.15251,-0.60968 -0.45193,-1.49765 -0.665391,-1.97325 -0.21345,-0.47561 -1.6306,-5.59529 -3.14922,-11.37709 l -2.7611301,-10.512338 0.23202,-2.22592 c 0.12762,-1.22426 0.3869701,-2.37542 0.5763501,-2.55813 0.28986,-0.27967 88.619957,-18.05582 92.068565,-18.5285 0.82345,-0.11287 1.24718,-0.0544 1.44529,0.19935 0.15415,0.19746 2.1449,4.75113 4.42387,10.11926 l 4.14358,9.76023 -0.0842,2.32271 c -0.0463,1.27749 -0.2126,2.48133 -0.36954,2.67519 -0.15693,0.19386 -0.50453,1.054538 -0.77245,1.912628 -0.40987,1.31276 -0.62435,1.61749 -1.3526,1.92178 -0.81139,0.33901 -0.86551,0.44304 -0.86551,1.66376 0,1.65834 -0.37689,2.65951 -1.00121,2.65951 -1.19712,0 -1.37339,0.47741 -1.66086,4.49792 -0.15086,2.11005 -0.38497,4.10435 -0.52023,4.43177 -0.26284,0.63624 -1.18323,0.81349 -1.37384,0.26458 -0.0632,-0.1819 0.0238,-1.93807 0.19322,-3.9026 0.35525,-4.11888 0.23814,-4.63869 -0.98974,-4.39311 l -0.80597,0.16119 0.17682,-1.72577 c 0.21305,-2.07957 0.0588,-2.19887 -2.21851,-1.7156 l -1.559418,0.33093 -0.16174,1.48836 c -0.089,0.81861 -0.18497,1.7265 -0.21336,2.01754 -0.0351,0.36024 -0.2777,0.55529 -0.75986,0.61102 -0.38953,0.045 -0.8348,0.23435 -0.98948,0.42074 -0.15471,0.18639 -0.41384,2.17362 -0.5759,4.41606 -0.16204,2.24245 -0.41596,4.22601 -0.56424,4.40791 -0.14831,0.1819 -0.48043,0.33073 -0.7381,0.33073 -0.25766,0 -0.52197,-0.14883 -0.58737,-0.33073 -0.0654,-0.1819 -8e-4,-2.03907 0.14369,-4.12704 0.28886,-4.17604 0.21831,-4.4188 -1.19772,-4.12149 l -0.71944,0.15105 0.15893,-1.7019 c 0.11095,-1.18807 0.0632,-1.76109 -0.15824,-1.89792 -0.17444,-0.10781 -1.07005,-0.054 -1.99026,0.11967 l -1.67309,0.31569 -0.22735,2.02344 c -0.19317,1.71929 -0.30688,2.03787 -0.75651,2.11948 -1.24131,0.2253 -1.3828,0.6524 -1.57379,4.7504 -0.0997,2.13948 -0.23682,4.08547 -0.3047,4.32443 -0.14593,0.51374 -1.01487,0.79969 -1.36527,0.44929 -0.14106,-0.14107 -0.19121,-1.94234 -0.11775,-4.23049 0.14038,-4.37366 0.082,-4.55663 -1.361171,-4.26799 l -0.77887,0.15577 0.17027,-1.56219 c 0.24153,-2.21602 0.0866,-2.3673 -2.018456,-1.97011 -1.71365,0.32334 -1.719,0.32714 -1.88052,1.33726 -0.0891,0.55714 -0.0897,1.20131 -10e-4,1.43148 0.30005,0.78192 -0.123,1.67331 -0.88488,1.86453 -1.36026,0.3414 -1.39285,0.45333 -1.39285,4.78399 0,3.38174 -0.0708,4.12051 -0.42899,4.47873 -0.23595,0.23595 -0.6229,0.39186 -0.8599,0.34647 -0.37,-0.0709 -0.4496,-0.68042 -0.56319,-4.3127 l -0.13236,-4.23017 -0.99219,-0.0821 -0.99219,-0.0821 v -1.71212 c 0,-1.15181 -0.11143,-1.75489 -0.34049,-1.84279 -0.18727,-0.0719 -1.050479,0.0302 -1.91823,0.2269 l -1.57774,0.35755 -0.0772,2.02811 c -0.0747,1.96061 -0.10108,2.0338 -0.79375,2.19914 -1.3528,0.32292 -1.37797,0.4117 -1.37797,4.86057 0,4.39235 -0.14086,4.92622 -1.24406,4.7152 -0.4255,-0.0814 -0.4897,-0.50977 -0.60803,-4.05675 -0.0728,-2.18116 -0.23242,-4.12074 -0.35481,-4.31017 -0.12681,-0.19628 -0.58202,-0.31009 -1.05832,-0.26458 l -0.83582,0.0798 -0.0803,-1.71293 c -0.0442,-0.94211 -0.20497,-1.78997 -0.35732,-1.88413 -0.24442,-0.15106 -0.93216,-0.0551 -3.05702,0.42646 -0.53154,0.12047 -0.59117,0.31567 -0.66145,2.16463 l -0.0772,2.03223 -0.85989,0.22204 c -0.47295,0.12212 -0.88311,0.36746 -0.91149,0.5452 -0.0284,0.17774 -0.0581,2.22817 -0.0661,4.5565 l -0.0146,4.23334 h -0.79375 -0.79375 l -0.16385,-1.98438 c -0.0901,-1.09141 -0.17942,-2.90008 -0.19844,-4.01928 -0.0372,-2.19156 -0.15909,-2.39454 -1.46259,-2.43655 -0.81975,-0.0264 -0.82106,-0.0289 -0.90006,-1.69339 -0.0945,-1.98991 -0.26129,-2.10154 -2.4476,-1.63757 l -1.57434,0.3341 v 2.08051 c 0,1.86346 -0.0522,2.08051 -0.49985,2.08051 -0.27492,0 -0.75445,0.20836 -1.06562,0.46302 -0.55852,0.45709 -0.56184,0.51468 -0.25968,4.49572 0.32604,4.29564 0.23081,4.83085 -0.85963,4.83085 -0.73762,0 -0.93251,-0.79574 -1.14823,-4.68807 -0.20956,-3.78106 -0.36042,-4.14814 -1.64309,-3.99781 -0.71916,0.0843 -0.74842,0.0389 -0.96659,-1.50058 -0.36573,-2.58068 -0.13309,-2.4577 -3.17784,-1.67994 l -1.02158,0.26095 0.18445,1.96833 0.18444,1.96832 -0.81058,0.16212 c -1.38392,0.27678 -1.42864,0.47861 -1.06539,4.80807 0.18184,2.16731 0.2551,4.13737 0.16279,4.37791 -0.18732,0.48816 -1.37701,0.59773 -1.65237,0.15219 -0.0969,-0.15685 -0.33374,-2.01989 -0.52623,-4.14011 -0.22074,-2.43138 -0.470579,-3.92946 -0.67655,-4.05676 -0.17962,-0.11101 -0.707099,-0.14009 -1.172179,-0.0646 l -0.84559,0.13722 -0.188691,-1.91484 -0.188679,-1.91485 -1.46364,0.17202 c -2.41936,0.28435 -2.51517,0.3947 -2.30985,2.66044 l 0.17592,1.9414 -0.80938,0.17777 c -1.38046,0.3032 -1.41651,0.49195 -0.92487,4.84195 0.37452,3.31379 0.39129,4.05355 0.0998,4.40474 -0.50684,0.61069 -1.32156,0.5208 -1.57017,-0.17325 z m -0.932789,-13.56808 c 2.93448,-0.50586 3.32866,-0.62701 3.2089,-0.98627 -0.0854,-0.2563 -2.07469,-0.28988 -4.43101,-0.0748 -0.3638,0.0332 -0.86982,0.079 -1.12448,0.10179 -0.30646,0.0274 -0.46302,0.26508 -0.46302,0.70287 0,0.781 -0.15273,0.76706 2.80961,0.2564 z m 11.14887,-2.3775 c 1.23773,-0.21584 2.353879,-0.39244 2.48034,-0.39244 0.12646,0 0.22993,-0.13395 0.22993,-0.29766 0,-0.32053 -0.3284,-0.27826 -3.77031,0.48534 -1.12779,0.2502 -2.05053,0.56119 -2.05053,0.69109 0,0.1299 0.193539,0.16191 0.430079,0.0711 0.23653,-0.0908 1.44276,-0.34163 2.68049,-0.55747 z m 11.154419,-2.31515 c 1.22455,-0.30896 2.11752,-0.59532 1.98438,-0.63636 -0.54805,-0.16894 -5.50538,0.88648 -5.60786,1.19392 -0.12289,0.36868 0.07,0.339 3.62348,-0.55756 z m 10.05802,-2.03366 c 1.70209,-0.30399 2.97856,-0.78104 2.13533,-0.79804 -0.7774,-0.0157 -4.55271,0.79059 -4.98454,1.06451 -0.48646,0.30857 -0.24323,0.28583 2.84921,-0.26647 z m 10.20513,-2.12432 c 0.58207,-0.1317 1.38575,-0.30797 1.78594,-0.39172 0.40018,-0.0837 0.72759,-0.25639 0.72759,-0.38367 0,-0.1274 -0.446,-0.13947 -0.99219,-0.0269 -0.5457,0.1125 -1.736329,0.35424 -2.64583,0.5372 -0.90951,0.18295 -1.65365,0.44489 -1.65365,0.58209 0,0.24353 0.60633,0.17433 2.77814,-0.31703 z m 8.68022,-1.84771 c 0.61015,-0.14052 1.79397,-0.38709 2.63072,-0.54793 0.83673,-0.16084 1.52134,-0.38361 1.52134,-0.49505 0,-0.11143 -1.25015,0.0404 -2.77812,0.33736 -1.52797,0.29699 -2.77813,0.63473 -2.77813,0.75054 0,0.26625 0.0616,0.26428 1.40419,-0.0449 z m 12.250767,-2.51988 c 1.95867,-0.37475 2.43357,-0.54158 2.19799,-0.77209 -0.21141,-0.20687 -5.534201,0.97827 -5.534201,1.23221 0,0.14077 0.29323,0.18235 0.651611,0.0924 0.35839,-0.09 1.56645,-0.33858 2.6846,-0.55252 z m 9.91042,-2.01976 c 1.30008,-0.30899 2.36379,-0.66844 2.36379,-0.79879 0,-0.13035 -0.26788,-0.17484 -0.59531,-0.0989 -0.91105,0.2114 -4.45133,0.93028 -4.58137,0.93028 -0.0632,0 -0.11499,0.11906 -0.11499,0.26459 0,0.36621 0.23824,0.34202 2.92788,-0.29721 z m 10.016718,-2.10775 c 2.69086,-0.61955 3.32255,-1.15644 0.74759,-0.63539 -0.90951,0.18404 -2.10013,0.41303 -2.64583,0.50885 -0.5457,0.0958 -0.99219,0.28789 -0.99219,0.42682 0,0.34591 0.15292,0.33002 2.89043,-0.30028 z"
       style="fill:#b4b4b4;stroke-width:0.26458338" />
    <path
       inkscape:connector-curvature="0"
       id="path1487-5-9"
       d="m 16.619236,59.354056 c -0.0647,-0.20159 -0.25473,-0.84277 -0.42229,-1.42485 -0.16756,-0.58209 -0.471201,-1.41552 -0.67476,-1.85209 -0.20355,-0.43656 -0.79009,-2.40109 -1.3034,-4.36562 -0.51332,-1.96453 -1.70088,-6.494 -2.63901,-10.06548 -1.6616501,-6.325958 -1.7016501,-6.555958 -1.54919,-8.909138 0.0861,-1.32854 0.2385,-2.54823 0.33873,-2.7104 0.29306,-0.47419 92.898114,-18.8422 93.302724,-18.50639 0.18535,0.15382 2.20383,4.64614 4.48552,9.98294 l 4.14854,9.70326 -0.047,2.34152 c -0.0259,1.28784 -0.15899,2.53799 -0.29585,2.77813 -0.13686,0.24013 -0.49926,1.129408 -0.80532,1.976168 -0.7052,1.951 -1.41213,2.26777 -1.90733,0.85465 -0.11205,-0.31974 -5.53584,0.6417 -5.80335,1.02872 -0.10691,0.15468 -0.19622,0.53268 -0.19844,0.84002 -0.003,0.46661 -0.25137,0.60845 -1.5034,0.85989 -1.994388,0.40053 -2.120398,0.38793 -2.281478,-0.22806 -0.16963,-0.64864 -0.61484,-0.65511 -3.75981,-0.0546 -2.35959,0.45057 -2.38198,0.4622 -2.46164,1.27931 -0.0755,0.7738 -0.17191,0.84299 -1.56549,1.12286 -1.99603,0.40086 -2.06308,0.39163 -2.39143,-0.32903 l -0.28582,-0.62728 -2.8655,0.57123 c -2.75416,0.54904 -2.86879,0.59913 -2.94926,1.28884 -0.10378,0.88953 -0.63835,1.18688 -2.534276,1.40971 -1.38125,0.16234 -1.48303,0.13656 -1.48303,-0.37568 0,-0.30249 -0.0893,-0.60519 -0.1985,-0.67266 -0.10919,-0.0675 -1.50817,0.13837 -3.10886,0.45744 l -2.91035,0.58012 -0.0812,0.82734 c -0.0936,0.95292 -0.35987,1.09439 -2.47658,1.31563 -1.42864,0.14932 -1.54323,0.12131 -1.54323,-0.37725 0,-0.2962 -0.14883,-0.59061 -0.33073,-0.65423 -0.1819,-0.0636 -1.58089,0.132 -3.10886,0.43471 l -2.77812,0.5504 -0.13229,0.90696 c -0.12454,0.85383 -0.21756,0.92681 -1.5875,1.24556 -2.01527,0.46891 -2.38125,0.44805 -2.38125,-0.13575 0,-0.92947 -0.53605,-1.07445 -2.64958,-0.71663 -1.08935,0.18443 -2.33782,0.32453 -2.77438,0.31134 -0.74756,-0.0226 -0.80145,0.0444 -0.92604,1.15075 -0.13044,1.15827 -0.15085,1.17953 -1.45521,1.51625 -2.05348,0.53011 -2.7765,0.46691 -2.78654,-0.24359 -0.005,-0.32742 -0.16767,-0.80516 -0.36232,-1.06165 -0.30653,-0.4039 -0.52679,-0.43064 -1.64524,-0.19974 -0.71022,0.14662 -1.97593,0.39468 -2.81267,0.55124 l -1.52136,0.28465 v 1.28633 c 0,1.40856 0.134,1.30082 -2.30254,1.85143 -1.55398,0.35117 -1.93079,0.22885 -1.93079,-0.62678 0,-0.3274 -0.14883,-0.79596 -0.33073,-1.04125 -0.30866,-0.41621 -0.5249,-0.40629 -3.24115,0.14865 l -2.91041,0.59462 v 1.32214 1.32213 l -1.19063,0.30944 c -0.65484,0.17019 -1.56236,0.31902 -2.0167,0.33073 -0.76216,0.0197 -0.83899,-0.0594 -0.99289,-1.02186 -0.0917,-0.57373 -0.25582,-1.09816 -0.36461,-1.1654 -0.1088,-0.0672 -1.50747,0.13996 -3.10816,0.46043 l -2.91035,0.58268 -0.024,1.25494 c -0.0132,0.69021 -0.13385,1.36481 -0.26814,1.49909 -0.13429,0.13429 -0.92472,0.32415 -1.75652,0.42191 -1.17301,0.13787 -1.53876,0.0955 -1.62999,-0.18877 z"
       style="fill:#8f8f8f;stroke-width:0.26458338"
       sodipodi:nodetypes="ccccscccccccccccccccsccccsscccccscccscscccccccccssscccccscccccscccc" />
    <path
       inkscape:connector-curvature="0"
       id="path1485-5-3"
       d="m 16.766605,59.185976 c -0.13342,-0.25466 -0.33054,-0.87974 -0.438049,-1.38906 -0.107501,-0.50933 -0.37132,-1.27 -0.586261,-1.69038 -0.21493,-0.42038 -1.61927,-5.42101 -3.12073,-11.1125 l -2.7299401,-10.348158 0.3143901,-2.36919 0.31439,-2.3692 4.22728,-0.85757 c 17.38745,-3.52737 88.094115,-17.55509 88.486295,-17.55509 0.39542,0 1.3257,1.95675 4.74891,9.98892 l 4.25717,9.98891 -0.0977,2.11577 c -0.0538,1.16368 -0.27249,2.5325 -0.48608,3.04182 -0.2136,0.509318 -0.5578,1.392818 -0.76489,1.963318 -0.51068,1.40681 -0.928,1.45543 -1.48367,0.17284 -0.25681,-0.5928 -0.62371,-1.07783 -0.81532,-1.07783 -0.19161,0 -1.20532,0.18409 -2.25268,0.40909 -1.04738,0.225 -2.15259,0.46047 -2.45603,0.52327 -0.4452,0.0921 -0.56018,0.33062 -0.59565,1.23543 -0.0558,1.42376 -0.38094,1.7286 -2.08057,1.95054 l -1.375828,0.17967 -0.47624,-1.11186 c -0.46911,-1.0952 -0.49212,-1.10937 -1.53458,-0.94557 -0.58209,0.0915 -1.862,0.34867 -2.84428,0.57157 -1.73192,0.39302 -1.78688,0.43065 -1.81729,1.24396 -0.0172,0.46128 -0.0157,0.97164 0.004,1.13413 0.0605,0.51264 -0.60181,0.8552 -2.01606,1.0428 l -1.36923,0.18164 -0.47251,-1.09067 c -0.25987,-0.59987 -0.61523,-1.09066 -0.78967,-1.09066 -0.28402,0 -3.27793,0.58152 -4.76333,0.92521 -0.45981,0.10638 -0.61898,0.40783 -0.79375,1.50321 -0.23327,1.46184 -0.23099,1.46006 -2.417806,1.89038 -0.8381,0.16492 -0.89911,0.12073 -1.40144,-1.01486 -0.55853,-1.26263 -0.78497,-1.35317 -2.3525,-0.94059 -0.50933,0.13406 -1.60295,0.37836 -2.43027,0.5429 l -1.50421,0.29915 -0.17498,1.40046 -0.17498,1.40046 -1.31755,0.30413 c -1.82311,0.42082 -1.76568,0.44288 -2.34098,-0.89923 -0.58301,-1.36011 -0.15938,-1.31803 -4.36017,-0.43314 l -2.11666,0.44587 -0.0792,1.36575 c -0.0877,1.51346 -0.1496,1.56624 -2.14654,1.83114 l -1.3061,0.17326 -0.33475,-1.1173 c -0.18412,-0.61452 -0.46103,-1.16054 -0.61535,-1.21338 -0.15433,-0.0528 -1.53076,0.16792 -3.05872,0.49057 l -2.77813,0.58663 -0.0798,1.38253 c -0.078,1.35224 -0.10118,1.38788 -1.05833,1.62711 -2.3638,0.59081 -2.43886,0.59384 -2.61096,0.10571 -0.091,-0.25823 -0.31504,-0.84342 -0.49775,-1.30043 l -0.3322,-0.83091 -2.47301,0.49777 c -4.03446,0.81205 -3.66363,0.59932 -3.66363,2.10168 0,1.20086 -0.0679,1.35044 -0.7276,1.6032 -0.40018,0.15332 -1.19105,0.2992 -1.75748,0.32418 -0.9883,0.0436 -1.04526,2e-5 -1.41111,-1.07907 -0.20968,-0.61846 -0.53333,-1.12448 -0.71922,-1.12448 -0.85792,0 -5.8538,1.14734 -5.99879,1.37767 -0.0897,0.14255 -0.10497,0.77536 -0.0339,1.40624 0.12882,1.14287 0.12555,1.14804 -0.89517,1.41639 -0.56346,0.14813 -1.3752,0.30546 -1.80386,0.34962 -0.69668,0.0718 -0.80923,-0.0238 -1.06057,-0.9009 -0.15465,-0.53966 -0.39923,-1.09436 -0.54353,-1.23268 -0.16644,-0.15955 -1.22958,-0.0645 -2.90818,0.26012 -3.80273,0.73532 -3.61579,0.63512 -3.56586,1.91131 0.0237,0.60543 0.032,1.23974 0.0185,1.40958 -0.0135,0.16984 -0.62571,0.43773 -1.36048,0.59531 -1.66171,0.35638 -1.51153,0.37112 -1.79845,-0.17651 z"
       style="fill:#707070;stroke-width:0.26458338"
       sodipodi:nodetypes="ccccccccsccccccscccccccccccccsccsccccccccscccccccccsccccsccssccccccccsccc" />
    <path
       sodipodi:nodetypes="ccccccssccccccccscccsccccccccssccsccccccccccccccccccscsccsccccccccc"
       inkscape:connector-curvature="0"
       id="path1483-4-7"
       d="m 16.875006,59.088936 c -0.0693,-0.20129 -0.37896,-1.08036 -0.688111,-1.95348 -0.30915,-0.87313 -1.7953,-6.19469 -3.30254,-11.82571 l -2.74045,-10.238198 0.15663,-2.41763 c 0.13834,-2.13528 0.22142,-2.44211 0.71136,-2.62722 0.3051,-0.11528 11.091761,-2.30856 23.97035,-4.87397 12.8786,-2.5654 33.53488,-6.68301 45.90287,-9.15024 12.367977,-2.46724 22.571385,-4.40149 22.674215,-4.29833 0.10284,0.10315 2.04412,4.53333 4.31396,9.84484 l 4.127,9.65729 -0.0995,2.38125 c -0.0981,2.34906 -1.05715,5.669118 -1.6994,5.883198 -0.13965,0.0465 -0.39759,-0.39492 -0.5732,-0.98105 -0.3746,-1.25033 -0.73212,-1.31529 -3.65507,-0.66422 -0.9913,0.22081 -2.07025,0.4612 -2.39767,0.5342 -0.51922,0.11578 -0.5953,0.3 -0.5953,1.44131 0,1.48183 -0.29423,1.76602 -1.97207,1.90474 -0.98145,0.0811 -1.027428,0.0469 -1.395548,-1.04057 -0.49832,-1.47207 -0.53495,-1.47323 -6.09124,-0.19321 -0.51864,0.11948 -0.59531,0.3057 -0.59531,1.44571 0,1.46706 -0.2131,1.6769 -2.00404,1.97332 l -1.07798,0.17841 -0.32589,-1.08772 c -0.17924,-0.59825 -0.50016,-1.1546 -0.71315,-1.23633 -0.4444,-0.17053 -5.427831,0.66209 -5.749341,0.96058 -0.11722,0.10882 -0.26972,0.77585 -0.3389,1.4823 -0.13974,1.42693 -0.30643,1.59982 -1.783066,1.84929 -1.17116,0.19787 -1.31935,0.0905 -1.75453,-1.27131 -0.37032,-1.15885 -0.57748,-1.19413 -3.49987,-0.59612 -3.41581,0.69898 -3.12616,0.51759 -3.12616,1.95782 0,1.56551 -0.35109,1.90918 -2.01035,1.96785 -1.23582,0.0437 -1.24262,0.0392 -1.62176,-1.0806 -0.26801,-0.79156 -0.52867,-1.12447 -0.88041,-1.12447 -0.57817,0 -5.61504,1.07257 -5.79356,1.23371 -0.0658,0.0594 -0.12533,0.72551 -0.13229,1.48028 l -0.0127,1.37231 -1.44153,0.32129 c -0.79283,0.17671 -1.52348,0.27064 -1.62365,0.20873 -0.10017,-0.0619 -0.25831,-0.51863 -0.35142,-1.01494 -0.28856,-1.53815 -0.56601,-1.60278 -3.91312,-0.91146 l -2.98902,0.61737 -0.0785,1.49305 -0.0785,1.49306 -1.16314,0.29288 c -1.7763,0.44728 -1.93957,0.39381 -2.24343,-0.73463 -0.42704,-1.58593 -0.60345,-1.63811 -3.58038,-1.05904 -1.45509,0.28305 -2.82422,0.61253 -3.0425,0.73218 -0.24581,0.13475 -0.44723,0.75938 -0.52917,1.64103 l -0.13229,1.42347 -1.40598,0.31086 c -1.55956,0.34482 -1.34453,0.51076 -2.19036,-1.69026 -0.12679,-0.32993 -0.45421,-0.59531 -0.73449,-0.59531 -0.64534,0 -5.55872,1.00713 -5.87897,1.20505 -0.13268,0.082 -0.24124,0.78847 -0.24124,1.56993 v 1.42084 l -1.4514,0.30131 c -1.64503,0.3415 -1.98818,0.22984 -1.98818,-0.64697 0,-0.3391 -0.20836,-0.87043 -0.46302,-1.18074 l -0.46303,-0.56421 -2.91041,0.57532 c -1.60073,0.31642 -3.07278,0.70199 -3.27121,0.85682 -0.25628,0.19997 -0.31763,0.64596 -0.21178,1.53971 0.082,0.69201 0.0458,1.32197 -0.0803,1.39991 -0.12611,0.078 -0.7726,0.21619 -1.43664,0.30721 -0.90385,0.12388 -1.23903,0.0735 -1.33336,-0.20049 z"
       style="fill:#4e4e4e;stroke-width:0.26458338" />
    <path
       inkscape:connector-curvature="0"
       id="path1481-7-4"
       d="m 16.732045,57.995346 c -0.153419,-0.61846 -0.457439,-1.48166 -0.67561,-1.91823 -0.69698,-1.39467 -5.8493,-21.483628 -5.64381,-22.005288 0.10492,-0.26636 0.19913,-1.22041 0.20936,-2.1201 0.015,-1.3174 0.10872,-1.66344 0.48161,-1.7777 0.25467,-0.078 16.000681,-3.23989 34.99115,-7.02635 18.99047,-3.78646 39.632427,-7.90329 45.871017,-9.14851 6.2386,-1.24522 11.384748,-2.22218 11.435898,-2.17103 0.14348,0.14348 6.1026,14.0005 7.36629,17.12919 1.01085,2.5027 1.11492,2.9669 1.04966,4.68221 -0.0398,1.04725 -0.18321,2.11881 -0.3186,2.38125 -0.1354,0.26244 -0.45936,1.129788 -0.71993,1.927428 -0.44396,1.35904 -0.48961,1.40896 -0.72571,0.79375 -0.13857,-0.36108 -0.35542,-0.9244 -0.4819,-1.25182 -0.16317,-0.42241 -0.44683,-0.59531 -0.97664,-0.59531 -0.85262,0 -5.14899,0.90281 -5.58823,1.17427 -0.16006,0.0989 -0.29103,0.82066 -0.29103,1.60385 0,0.78319 -0.0893,1.4768 -0.19842,1.54136 -0.10916,0.0646 -0.69313,0.1992 -1.29774,0.2992 -1.08119,0.17882 -1.10236,0.16735 -1.286208,-0.69708 -0.22872,-1.07533 -0.83632,-1.80494 -1.50312,-1.80494 -0.73433,0 -4.48205,0.76791 -5.17336,1.06003 -0.51401,0.21719 -0.59531,0.44894 -0.59531,1.69681 0,0.79489 -0.0893,1.49808 -0.19844,1.56265 -0.10913,0.0646 -0.69737,0.19992 -1.30717,0.30079 l -1.10873,0.18341 -0.28793,-1.06924 c -0.2895,-1.07512 -1.13355,-1.93844 -1.69217,-1.73081 -0.16519,0.0614 -1.42463,0.35042 -2.79875,0.64225 -1.374111,0.29184 -2.586141,0.67259 -2.693381,0.84613 -0.10726,0.17353 -0.12916,0.87147 -0.0487,1.55097 0.16662,1.40687 0.0726,1.51035 -1.577636,1.73654 l -1.17345,0.16084 -0.31024,-1.23204 c -0.17062,-0.67762 -0.50178,-1.30554 -0.73591,-1.39538 -0.46586,-0.17877 -5.23261,0.6363 -5.9774,1.02209 -0.35562,0.18419 -0.46302,0.57675 -0.46302,1.69227 0,1.57411 -0.22157,1.79785 -1.98968,2.00922 -0.69006,0.0825 -0.78912,-0.005 -0.99686,-0.87868 -0.12687,-0.53365 -0.46484,-1.18221 -0.75106,-1.44123 -0.49961,-0.45215 -0.63343,-0.44759 -3.35233,0.11423 -3.2888,0.67959 -3.57265,0.91125 -3.33271,2.72001 0.18092,1.36382 0.19092,1.35425 -1.78056,1.70293 -0.93034,0.16455 -0.96352,0.14227 -1.13293,-0.76076 -0.096,-0.51165 -0.38833,-1.19431 -0.64965,-1.51703 l -0.47513,-0.58676 -3.0098,0.57316 c -1.65539,0.31524 -3.10283,0.71961 -3.21654,0.89861 -0.1137,0.179 -0.20856,0.9435 -0.21079,1.69889 -0.002,0.7554 -0.11324,1.44094 -0.24669,1.52341 -0.13345,0.0825 -0.7883,0.22475 -1.45521,0.31617 -1.14782,0.15732 -1.21262,0.13249 -1.21355,-0.46508 -5.3e-4,-0.3472 -0.24396,-1.02981 -0.54093,-1.5169 -0.41728,-0.68445 -0.6725,-0.85494 -1.12349,-0.75054 -0.32095,0.0743 -1.65512,0.33945 -2.9648,0.58922 -1.30969,0.24977 -2.53962,0.58024 -2.73319,0.73438 -0.23801,0.18954 -0.32365,0.75259 -0.26458,1.73946 l 0.0874,1.45921 -1.18684,0.34414 c -0.65277,0.18928 -1.29016,0.30971 -1.41642,0.26763 -0.12626,-0.0421 -0.42562,-0.66774 -0.66524,-1.39033 l -0.43566,-1.3138 -1.19063,0.0128 c -1.12498,0.012 -5.12288,0.77774 -5.5998,1.07249 -0.12157,0.0751 -0.22103,0.83693 -0.22103,1.69288 0,0.85595 -0.0893,1.61124 -0.19844,1.67841 -0.10914,0.0672 -0.74863,0.20449 -1.42109,0.30513 l -1.22265,0.18298 -0.17486,-0.93209 c -0.0962,-0.51265 -0.39614,-1.20536 -0.6666,-1.53937 l -0.49175,-0.60728 -3.00554,0.61017 c -1.90347,0.38644 -3.13479,0.77197 -3.35805,1.05142 -0.24245,0.30348 -0.3048,0.86543 -0.19971,1.79979 0.14022,1.24672 0.10391,1.37164 -0.44124,1.51774 -0.32672,0.0876 -0.91687,0.16083 -1.31144,0.16282 -0.62484,0.003 -0.75339,-0.14147 -0.99634,-1.12087 z M 15.659867,39.659855 c -0.037,-0.680229 -0.444845,-1.394659 -1.217917,-1.421791 -1.365603,-0.04793 -1.792688,1.195334 -0.725294,2.317963 0.823243,0.741786 1.985172,-0.12462 1.943211,-0.896172 z"
       style="fill:#000000;fill-opacity:1;stroke-width:0.26458338"
       sodipodi:nodetypes="cccccsssscccccscscccscsccccccccsccccscccccccccscccccccscccccscccsccccccccsccccsscs" />
    <g
       transform="matrix(1.2849674,-0.27000228,0.51101436,1.2866176,-193.9439,-149.2643)"
       id="g1861-1-8"
       style="fill:#ffffff;fill-opacity:1;stroke-width:0.74717706;filter:url(#filter4568)"
       inkscape:transform-center-x="-30.947468"
       inkscape:transform-center-y="-2.1593208">
      <text
         id="text1809-3-0"
         y="176.74959"
         x="116.38924"
         style="font-style:normal;font-weight:normal;font-size:6.74915028px;line-height:1.25;font-family:sans-serif;letter-spacing:0px;word-spacing:0px;fill:#ffffff;fill-opacity:1;stroke:none;stroke-width:0.19769059"
         xml:space="preserve"><tspan
           style="font-style:normal;font-variant:normal;font-weight:normal;font-stretch:normal;font-family:FreeSans;-inkscape-font-specification:FreeSans;fill:#ffffff;fill-opacity:1;stroke-width:0.19769059"
           y="176.74959"
           x="116.38924"
           id="tspan1807-6-2"
           sodipodi:role="line">ABC12345</tspan></text>
      <g
         style="fill:#ffffff;fill-opacity:1;stroke-width:0.74717706"
         transform="translate(26.544447,90.064466)"
         id="g1665-77-4-4">
        <path
           d="m 93.944828,71.35814 h 1.79423 v 7.80168 h -1.79423 z"
           style="fill:#ffffff;fill-opacity:1;fill-rule:nonzero;stroke:none;stroke-width:0.26358745"
           id="path52-2-5-0-2-2-0-9"
           inkscape:connector-curvature="0" />
        <path
           d="m 86.090128,71.35814 h 1.63054 v 2.78024 h 3.43888 v -2.78024 h 1.63089 v 7.80168 h -1.63089 v -2.95275 h -3.43888 v 2.95275 h -1.63054 z"
           style="fill:#ffffff;fill-opacity:1;fill-rule:nonzero;stroke:none;stroke-width:0.26358745"
           id="path68-2-9-3-5-3-3-0"
           inkscape:connector-curvature="0" />
        <path
           d="m 101.84215,71.35814 h -5.041542 v 7.80168 h 1.630891 v -1.96109 h 3.836461 c 1.15393,0 1.49895,-1.33668 1.49895,-2.49978 v -0.66852 c 0,-1.53 -0.37465,-2.67229 -1.92476,-2.67229 m 0.24977,3.07093 c 0,0.46355 -0.14676,0.82973 -0.52917,0.82973 h -3.131251 v -1.96109 h 2.991911 c 0.49212,0 0.66851,0.30163 0.66851,0.82974 z"
           style="fill:#ffffff;fill-opacity:1;fill-rule:nonzero;stroke:none;stroke-width:0.26358745"
           id="path72-1-2-6-4-7-5-1"
           inkscape:connector-curvature="0" />
        <path
           d="m 78.190978,74.00897 c 0,-2.28459 0.87418,-2.82328 2.343501,-2.82328 h 1.9177 c 2.321629,0 2.613029,-0.15134 2.598209,2.05811 l -4.19488,-0.007 c -0.860069,0 -0.98954,0.5461 -0.98954,1.51588 V 75.593 c 0,1.13171 0.16192,1.56245 0.93309,1.56245 l 4.32718,-0.004 c 0,1.3148 -0.0169,2.00837 -1.65524,2.00837 h -2.93652 c -1.46932,0 -2.3435,-0.53905 -2.3435,-2.82399 z"
           style="fill:#ffffff;fill-opacity:1;fill-rule:nonzero;stroke:none;stroke-width:0.26358745"
           id="path76-7-2-1-7-25-8-2"
           inkscape:connector-curvature="0" />
        <path
           d="m 126.60686,74.17083 v -0.49565 c 0,-1.40088 -0.33761,-2.31704 -1.59385,-2.31704 h -5.2137 v 7.80168 h 1.63124 v -2.02601 h 2.85503 c 0.50695,0 0.66816,0.26988 0.66816,1.08868 v 0.93733 h 1.6316 v -1.32504 c 0,-1.28234 -0.40428,-1.59491 -0.88935,-1.72473 v -0.0212 c 0.74965,-0.25894 0.91087,-0.87313 0.91087,-1.91806 m -1.58679,0.20497 c 0,0.55985 -0.16158,0.81879 -0.60255,0.81879 h -2.98697 v -1.89688 h 2.84022 c 0.51435,0 0.7493,0.12982 0.7493,0.81915 z"
           style="fill:#ffffff;fill-opacity:1;fill-rule:nonzero;stroke:none;stroke-width:0.26358745"
           id="path60-3-8-0-4-3-5-0"
           inkscape:connector-curvature="0" />
        <path
           d="m 111.93179,74.00891 c 0,-2.28458 0.87419,-2.82328 2.3435,-2.82328 h 2.61549 c 1.46932,0 2.34351,0.5387 2.34351,2.82328 v 2.32728 c 0,2.28459 -0.87419,2.82363 -2.34351,2.82363 h -2.61549 c -1.46931,0 -2.3435,-0.53904 -2.3435,-2.82363 v -2.32728 m 1.67499,1.58398 c 0,1.13136 0.16192,1.56245 0.93309,1.56245 h 2.08668 c 0.77118,0 0.93275,-0.43109 0.93275,-1.56245 v -0.84032 c 0,-0.97014 -0.16157,-1.56281 -1.02129,-1.56281 h -1.90994 c -0.85937,0 -1.02129,0.59267 -1.02129,1.56281 z"
           style="fill:#ffffff;fill-opacity:1;fill-rule:nonzero;stroke:none;stroke-width:0.26358745"
           id="path64-0-9-6-4-7-0-0"
           inkscape:connector-curvature="0" />
        <path
           inkscape:connector-curvature="0"
           style="fill:#ffffff;fill-opacity:1;fill-rule:nonzero;stroke:none;stroke-width:0.26358745"
           d="m 129.62123,73.4303 v 5.72952 h 1.65451 V 73.4303 h 2.57576 v -2.04399 h -6.67962 v 2.04399 z"
           id="path68-2-9-3-1-3-3-6-9-6"
           sodipodi:nodetypes="ccccccccc" />
        <path
           style="fill:#ffffff;fill-opacity:1;fill-rule:nonzero;stroke:none;stroke-width:0.26358745"
           d="m 109.37192,71.26313 c -0.23012,-1.8e-4 -0.48855,0.003 -0.77876,0.003 h -1.91771 c -1.46932,0 -2.34353,0.5385 -2.34353,2.82309 0,1.93152 0.5063,2.73693 2.48423,2.75243 l 2.47954,-0.0109 c 0.50384,-0.002 0.50479,0.0101 0.50461,0.44964 -1.8e-4,0.43959 -0.007,0.46418 -0.50071,0.46344 l -4.64215,-0.007 c -0.0148,1.2573 0.12633,1.42299 2.44796,1.42299 h 1.91771 c 1.46932,0 2.35654,-0.0541 2.34353,-2.33865 -0.008,-1.40528 -0.12584,-1.80727 -0.75813,-1.81768 h -1.28154 -2.38022 c -0.91517,-0.044 -0.94826,-0.0124 -0.94826,-0.67593 v -0.34689 c 0,-0.65289 0.13779,-0.6639 0.99787,-0.6639 l 4.19509,0.007 c 0.013,-1.93327 -0.20864,-2.0591 -1.81953,-2.06034 z"
           id="path76-7-29-7-5-2-0-8-9-3"
           inkscape:connector-curvature="0"
           sodipodi:nodetypes="cssscszscssscccsscccc" />
      </g>
    </g>
  </g>
</svg>
